<?xml version="1.0" encoding="UTF-8" ?>
<!DOCTYPE svg PUBLIC "-//W3C//DTD SVG 1.1//EN" "http://www.w3.org/Graphics/SVG/1.1/DTD/svg11.dtd">
<svg width="1000pt" height="709pt" viewBox="0 0 1000 709" version="1.1" xmlns="http://www.w3.org/2000/svg">
<g id="#00454eff">
<path fill="#00454e" opacity="1.00" d=" M 500.43 243.52 C 524.46 234.57 550.49 230.36 576.08 233.17 C 577.12 233.50 579.57 232.87 579.14 234.82 C 580.06 264.34 580.41 293.91 578.73 323.41 C 558.65 331.52 536.42 333.17 516.95 342.96 C 505.75 348.93 495.13 356.19 486.28 365.34 C 462.17 389.85 449.34 424.77 451.22 459.03 C 450.76 474.19 453.80 489.39 459.82 503.30 C 471.35 529.96 492.26 552.01 516.99 566.94 C 535.75 577.93 557.86 579.77 578.79 583.70 C 580.41 615.54 579.95 647.44 578.99 679.29 C 537.21 680.13 495.62 667.72 460.20 645.79 C 426.32 624.95 397.57 595.53 378.45 560.58 C 363.46 533.21 354.61 502.31 354.09 471.05 C 354.14 464.37 353.36 457.72 353.36 451.04 C 352.62 390.81 378.80 330.83 423.42 290.38 C 446.19 270.59 472.08 254.07 500.43 243.52 Z" />
</g>
</svg>
