<?xml version="1.0" encoding="UTF-8" ?>
<!DOCTYPE svg PUBLIC "-//W3C//DTD SVG 1.1//EN" "http://www.w3.org/Graphics/SVG/1.1/DTD/svg11.dtd">
<svg width="1000pt" height="709pt" viewBox="0 0 1000 709" version="1.1" xmlns="http://www.w3.org/2000/svg">
<g id="#00454eff">
<path fill="#00454e" opacity="1.00" d=" M 0.00 0.00 L 96.06 0.00 C 100.40 18.33 103.70 37.12 111.48 54.41 C 115.31 63.06 120.47 71.11 126.78 78.16 C 152.36 109.49 192.58 128.40 233.06 127.65 C 277.32 124.98 318.66 97.59 340.01 58.98 C 349.59 40.66 352.50 19.95 356.86 0.00 L 454.74 0.00 C 451.20 20.65 448.38 41.49 442.84 61.74 C 435.47 89.55 421.78 115.49 404.13 138.12 C 380.11 168.84 348.08 193.45 311.71 207.70 C 252.81 231.18 183.98 229.07 127.07 200.84 C 116.35 195.64 106.34 189.15 96.41 182.59 C 78.17 170.21 62.19 154.63 48.91 137.05 C 23.06 102.79 7.23 61.66 0.00 19.54 L 0.00 0.00 Z" />
</g>
</svg>
